<svg width="290" height="137" viewBox="0 0 290 137" fill="none" xmlns="http://www.w3.org/2000/svg">
<path d="M9.36001 136.475C9.89842 137.104 10.8453 137.178 11.4749 136.64L21.7348 127.866C22.3644 127.328 22.4384 126.381 21.8999 125.751C21.3615 125.121 20.4147 125.048 19.7851 125.586L10.6651 133.385L2.86597 124.265C2.32755 123.636 1.38069 123.562 0.751085 124.1C0.121484 124.638 0.0475646 125.585 0.585982 126.215L9.36001 136.475ZM286.007 1.14529C287.799 19.5561 285.009 33.1742 278.908 43.266C272.812 53.3485 263.301 60.0948 251.29 64.5548C227.149 73.5191 193.378 73.0966 158.414 72.188C123.631 71.2842 87.718 69.9038 59.8677 77.2449C45.9059 80.925 33.8399 86.8257 24.9258 96.1811C15.9912 105.558 10.3395 118.283 9.00455 135.383L11.9954 135.617C13.2855 119.092 18.7119 107.051 27.0977 98.2506C35.5039 89.4282 47.0004 83.739 60.6323 80.1458C87.9695 72.94 123.369 74.2783 158.336 75.187C193.122 76.0909 227.538 76.5746 252.335 67.3671C264.793 62.7411 274.938 55.632 281.475 44.818C288.007 34.0133 290.826 19.6939 288.993 0.854713L286.007 1.14529Z" fill="#18D1A1"/>
</svg>
