<svg width="25" height="16" viewBox="0 0 25 16" fill="none" xmlns="http://www.w3.org/2000/svg">
<g clip-path="url(#clip0_2032_58)">
<path d="M22.7544 0H2.2382C2.15275 0 2.06715 0 1.98186 0.000498277C1.90976 0.00101165 1.83782 0.00181192 1.76589 0.00377483C1.60901 0.00801773 1.45078 0.0172736 1.29586 0.0451167C1.13847 0.073443 0.992006 0.119647 0.849121 0.192395C0.708652 0.26383 0.580051 0.357265 0.468605 0.468758C0.35711 0.580251 0.263676 0.708641 0.192256 0.849261C0.119492 0.992145 0.0732582 1.13865 0.0451282 1.29617C0.0171356 1.45113 0.00781782 1.60933 0.00359001 1.76605C0.0016573 1.83798 0.000828348 1.90991 0.00035876 1.98183C-0.000139518 2.06731 2.65748e-05 2.15272 2.65748e-05 2.23835V13.7618C2.65748e-05 13.8474 -0.000139518 13.9327 0.00035876 14.0184C0.000828348 14.0903 0.0016573 14.1622 0.00359001 14.2341C0.00781782 14.3907 0.0171356 14.5489 0.0451282 14.7038C0.0732582 14.8614 0.119492 15.0079 0.192256 15.1508C0.263676 15.2914 0.35711 15.4199 0.468605 15.5313C0.580051 15.6429 0.708652 15.7364 0.849121 15.8076C0.992006 15.8805 1.13847 15.9268 1.29586 15.9551C1.45078 15.9827 1.60901 15.9922 1.76589 15.9964C1.83782 15.998 1.90976 15.999 1.98186 15.9993C2.06715 16 2.15275 16 2.2382 16H22.7544C22.8397 16 22.9253 16 23.0105 15.9993C23.0825 15.999 23.1544 15.998 23.2267 15.9964C23.3832 15.9922 23.5414 15.9827 23.6967 15.9551C23.8539 15.9268 24.0004 15.8805 24.1433 15.8076C24.2839 15.7364 24.4121 15.6429 24.5238 15.5313C24.6351 15.4199 24.7286 15.2914 24.8002 15.1508C24.8731 15.0079 24.9193 14.8614 24.9473 14.7038C24.9753 14.5489 24.9844 14.3907 24.9886 14.2341C24.9906 14.1622 24.9915 14.0903 24.9919 14.0184C24.9925 13.9327 24.9925 13.8474 24.9925 13.7618V2.23835C24.9925 2.15272 24.9925 2.06731 24.9919 1.98183C24.9915 1.90991 24.9906 1.83798 24.9886 1.76605C24.9844 1.60933 24.9753 1.45113 24.9473 1.29617C24.9193 1.13865 24.8731 0.992145 24.8002 0.849261C24.7286 0.708641 24.6351 0.580251 24.5238 0.468758C24.4121 0.357265 24.2839 0.26383 24.1433 0.192395C24.0004 0.119647 23.8539 0.073443 23.6967 0.0451167C23.5414 0.0172736 23.3832 0.00801773 23.2267 0.00377483C23.1544 0.00181192 23.0825 0.00101165 23.0105 0.000498277C22.9253 0 22.8397 0 22.7544 0Z" fill="black"/>
<path d="M22.7543 0.533203L23.0066 0.533686C23.075 0.534169 23.1434 0.534909 23.2121 0.536782C23.3317 0.540013 23.4716 0.546491 23.602 0.569864C23.7154 0.590279 23.8104 0.621323 23.9016 0.667768C23.9917 0.713534 24.0742 0.773509 24.1463 0.845457C24.2186 0.917888 24.2787 1.00054 24.325 1.09161C24.3712 1.18213 24.4021 1.27674 24.4224 1.39092C24.4457 1.5199 24.4521 1.66017 24.4554 1.7805C24.4572 1.84841 24.4581 1.91633 24.4585 1.98586C24.4591 2.06995 24.4591 2.15399 24.4591 2.23825V13.7617C24.4591 13.846 24.4591 13.9299 24.4585 14.0157C24.4581 14.0836 24.4572 14.1516 24.4554 14.2196C24.4521 14.3397 24.4457 14.4799 24.4221 14.6104C24.4021 14.7231 24.3712 14.8177 24.3248 14.9087C24.2786 14.9995 24.2186 15.0821 24.1466 15.154C24.0741 15.2265 23.9919 15.2863 23.9007 15.3325C23.8102 15.3787 23.7153 15.4097 23.6031 15.4299C23.47 15.4536 23.3243 15.4602 23.2145 15.4631C23.1454 15.4647 23.0767 15.4656 23.0063 15.466C22.9224 15.4666 22.8382 15.4666 22.7543 15.4666H2.23808C2.23696 15.4666 2.23588 15.4666 2.23474 15.4666C2.15179 15.4666 2.06867 15.4666 1.9842 15.4659C1.91533 15.4656 1.84662 15.4647 1.78018 15.4632C1.6679 15.4602 1.52206 15.4536 1.3901 15.4301C1.27691 15.4097 1.18201 15.3787 1.09026 15.3319C0.999985 15.2861 0.917798 15.2264 0.845306 15.1538C0.773373 15.0819 0.713595 14.9996 0.667376 14.9087C0.621111 14.8178 0.590158 14.7229 0.569805 14.6089C0.546279 14.4787 0.539817 14.339 0.536587 14.2197C0.534743 14.1514 0.533973 14.0831 0.533535 14.0152L0.533203 13.8146L0.533218 13.7617V2.23825L0.533203 2.18531L0.53352 1.98523C0.533973 1.9169 0.534743 1.84859 0.536587 1.78033C0.539817 1.66088 0.546279 1.52118 0.57 1.38985C0.590173 1.27692 0.621111 1.18201 0.667617 1.09067C0.713474 1.00039 0.773358 0.917979 0.84567 0.845683C0.917693 0.773629 1.00015 0.71373 1.091 0.667527C1.18176 0.621308 1.27684 0.590279 1.39004 0.56991C1.52047 0.546475 1.66046 0.540013 1.78035 0.536767C1.84869 0.534909 1.91702 0.534169 1.98485 0.533701L2.23808 0.533203H22.7543Z" fill="white"/>
<path d="M6.8229 5.38151C7.03689 5.11385 7.1821 4.75446 7.1438 4.38721C6.83055 4.40278 6.44828 4.59387 6.22696 4.86174C6.02825 5.09113 5.85237 5.46557 5.89822 5.81742C6.24986 5.84793 6.60118 5.64165 6.8229 5.38151Z" fill="black"/>
<path d="M7.13982 5.88631C6.62914 5.8559 6.19495 6.17615 5.95107 6.17615C5.70706 6.17615 5.33361 5.90164 4.9297 5.90904C4.40397 5.91676 3.91616 6.21401 3.64938 6.68678C3.10066 7.63254 3.50457 9.03543 4.03818 9.8057C4.29731 10.1868 4.60961 10.6064 5.02111 10.5913C5.40991 10.576 5.5623 10.3395 6.0349 10.3395C6.50715 10.3395 6.64443 10.5913 7.05599 10.5837C7.4828 10.576 7.74963 10.2024 8.00876 9.82096C8.30603 9.38655 8.42772 8.96709 8.43538 8.94407C8.42772 8.93644 7.61238 8.62365 7.60482 7.68575C7.59712 6.90044 8.24495 6.5269 8.27544 6.50373C7.9096 5.96265 7.33799 5.90164 7.13982 5.88631Z" fill="black"/>
<path d="M11.5863 4.82324C12.6962 4.82324 13.4691 5.58834 13.4691 6.70226C13.4691 7.82015 12.6803 8.58922 11.5585 8.58922H10.3295V10.5436H9.44165V4.82324H11.5863V4.82324ZM10.3295 7.84393H11.3483C12.1214 7.84393 12.5614 7.42774 12.5614 6.70623C12.5614 5.9848 12.1214 5.57251 11.3523 5.57251H10.3295V7.84393Z" fill="black"/>
<path d="M13.7012 9.35823C13.7012 8.62877 14.2601 8.18084 15.2512 8.12533L16.3928 8.05797V7.7369C16.3928 7.27307 16.0796 6.99558 15.5565 6.99558C15.0608 6.99558 14.7516 7.23338 14.6764 7.60607H13.8677C13.9153 6.85282 14.5574 6.29785 15.5881 6.29785C16.599 6.29785 17.2451 6.83302 17.2451 7.66946V10.5435H16.4245V9.85769H16.4048C16.163 10.3215 15.6357 10.6148 15.0887 10.6148C14.272 10.6148 13.7012 10.1074 13.7012 9.35823ZM16.3928 8.98165V8.65262L15.3661 8.71601C14.8547 8.75172 14.5654 8.97767 14.5654 9.33445C14.5654 9.6991 14.8666 9.93698 15.3265 9.93698C15.925 9.93698 16.3928 9.52469 16.3928 8.98165Z" fill="black"/>
<path d="M18.0197 12.0775V11.3838C18.083 11.3996 18.2257 11.3996 18.2971 11.3996C18.6935 11.3996 18.9076 11.2331 19.0384 10.805C19.0384 10.7971 19.1138 10.5513 19.1138 10.5473L17.6074 6.37305H18.5349L19.5895 9.76642H19.6053L20.6598 6.37305H21.5636L20.0016 10.7614C19.645 11.7723 19.2327 12.0973 18.3685 12.0973C18.2971 12.0973 18.083 12.0894 18.0197 12.0775Z" fill="black"/>
</g>
<defs>
<clipPath id="clip0_2032_58">
<rect width="24.9925" height="16" fill="white"/>
</clipPath>
</defs>
</svg>
