<svg width="112" height="158" viewBox="0 0 112 158" fill="none" xmlns="http://www.w3.org/2000/svg">
<path d="M86 156.5C86 157.328 86.6716 158 87.5 158H101C101.828 158 102.5 157.328 102.5 156.5C102.5 155.672 101.828 155 101 155H89V143C89 142.172 88.3284 141.5 87.5 141.5C86.6716 141.5 86 142.172 86 143V156.5ZM2.20213 15.3255C27.1625 2.10388 47.8785 1.25281 64.1506 7.91165C80.4621 14.5866 92.5986 28.9257 100.119 46.6484C107.638 64.3665 110.482 85.3404 108.29 105.029C106.097 124.728 98.8819 142.997 86.4393 155.439L88.5607 157.561C101.618 144.503 109.028 125.522 111.272 105.361C113.518 85.1908 110.612 63.696 102.881 45.4765C95.1514 27.2617 82.5379 12.1946 65.2869 5.13513C47.9965 -1.9404 26.3375 -0.853976 0.797867 12.6744L2.20213 15.3255Z" fill="#18D1A1"/>
</svg>
