<svg width="157" height="121" viewBox="0 0 157 121" fill="none" xmlns="http://www.w3.org/2000/svg">
<path d="M141.109 120.062C141.42 120.83 142.294 121.201 143.062 120.891L155.578 115.829C156.346 115.518 156.716 114.644 156.406 113.876C156.095 113.108 155.221 112.737 154.453 113.048L143.328 117.547L138.829 106.422C138.518 105.654 137.644 105.284 136.876 105.594C136.108 105.905 135.737 106.779 136.048 107.547L141.109 120.062ZM0 3.5C52.6426 3.5 96.2506 13.1185 122.489 32.3351C135.57 41.916 144.296 53.8512 147.745 68.1639C151.197 82.4904 149.405 99.3748 141.119 118.914L143.881 120.086C152.345 100.125 154.303 82.5721 150.661 67.4611C147.017 52.3363 137.805 39.834 124.261 29.9149C97.2494 10.1315 52.8574 0.5 0 0.5V3.5Z" fill="#18D1A1"/>
</svg>
