<svg width="426" height="135" viewBox="0 0 426 135" fill="none" xmlns="http://www.w3.org/2000/svg">
<path d="M417.223 0.632152C416.744 -0.043543 415.808 -0.202753 415.132 0.276546L404.121 8.08718C403.445 8.56648 403.286 9.50279 403.765 10.1785C404.245 10.8542 405.181 11.0134 405.857 10.5341L415.644 3.5913L422.587 13.3789C423.066 14.0546 424.003 14.2138 424.678 13.7345C425.354 13.2552 425.513 12.3189 425.034 11.6432L417.223 0.632152ZM0.578 52.6832C94.8889 126.175 193.701 144.689 271.667 129.221C349.57 113.766 406.843 64.3 417.479 1.75145L414.521 1.24855C404.157 62.2 348.18 110.984 271.083 126.279C194.049 141.561 96.1111 123.325 2.422 50.3168L0.578 52.6832Z" fill="#18D1A1"/>
</svg>
