<svg width="29" height="34" viewBox="0 0 29 34" fill="none" xmlns="http://www.w3.org/2000/svg">
<path d="M1 13.4404V8.66374M1 8.66374L4.56935 10.6059M1 8.66374L4.56935 6.6691" stroke="#18D1A1"/>
<path d="M28.5048 13.4404V8.66374M28.5048 8.66374L24.9354 10.6059M28.5048 8.66374L24.9354 6.6691" stroke="#18D1A1"/>
<path d="M17.797 14.3326L14.5951 16.1697M14.5951 16.1697V20.5265M14.5951 16.1697L11.3932 14.3326M14.5951 27.8751V32.5993M14.5951 32.5993L10.8683 30.4996M14.5951 32.5993L18.4794 30.4996M10.8683 3.09962L14.5951 1L18.4794 3.09962" stroke="#18D1A1"/>
<path d="M1 20.4214V24.9881L4.83181 27.1402" stroke="#18D1A1"/>
<path d="M28.5048 20.4214V24.9881L24.673 27.1402" stroke="#18D1A1"/>
</svg>
