<svg width="80" height="72" viewBox="0 0 80 72" fill="none" xmlns="http://www.w3.org/2000/svg">
<path d="M22.2599 72C21.4313 72 20.6591 71.7938 19.9435 71.3813C19.2279 70.9688 18.6817 70.3875 18.3051 69.6375L9.49153 54H16.0452L20.565 63H30.9604V58.5H23.2768L18.7571 49.5H7.00565L0.564972 38.25C0.414313 37.875 0.282486 37.5 0.169492 37.125C0.0564972 36.75 0 36.375 0 36C0 35.7 0.188324 34.95 0.564972 33.75L7.00565 22.5H18.7571L23.2768 13.5H30.9604V9H20.565L16.0452 18H9.49153L18.3051 2.3625C18.6817 1.6125 19.2279 1.03125 19.9435 0.61875C20.6591 0.20625 21.4313 0 22.2599 0H33.2203C34.5009 0 35.5744 0.43125 36.4407 1.29375C37.307 2.15625 37.7401 3.225 37.7401 4.5V22.5H30.9604L26.4407 27H37.7401V40.5H27.7966L23.2768 31.5H12.8814L8.36158 36H20.565L25.0847 45H37.7401V67.5C37.7401 68.775 37.307 69.8438 36.4407 70.7063C35.5744 71.5688 34.5009 72 33.2203 72H22.2599ZM46.7797 72C45.4991 72 44.4256 71.5688 43.5593 70.7063C42.693 69.8438 42.2599 68.775 42.2599 67.5V45H54.9153L59.435 36H71.6384L67.1186 31.5H56.7232L52.2034 40.5H42.2599V27H53.5593L49.0396 22.5H42.2599V4.5C42.2599 3.225 42.693 2.15625 43.5593 1.29375C44.4256 0.43125 45.4991 0 46.7797 0H57.7401C58.5687 0 59.3409 0.20625 60.0565 0.61875C60.7721 1.03125 61.3183 1.6125 61.6949 2.3625L70.5085 18H63.9548L59.435 9H49.0396V13.5H56.7232L61.2429 22.5H72.9944L79.435 33.75C79.5857 34.125 79.7175 34.5 79.8305 34.875C79.9435 35.25 80 35.625 80 36C80 36.3 79.8117 37.05 79.435 38.25L72.9944 49.5H61.2429L56.7232 58.5H49.0396V63H59.435L63.9548 54H70.5085L61.6949 69.6375C61.3183 70.3875 60.7721 70.9688 60.0565 71.3813C59.3409 71.7938 58.5687 72 57.7401 72H46.7797Z" fill="#18D1A1"/>
</svg>
