<svg width="24" height="24" viewBox="0 0 24 24" fill="none" xmlns="http://www.w3.org/2000/svg">
<path opacity="0.2" fill-rule="evenodd" clip-rule="evenodd" d="M15.337 4C14.6146 4.50713 14.025 5.18088 13.6182 5.9642C13.2114 6.74753 12.9993 7.61734 13 8.5C13 9.83 13.472 11.05 14.257 12H4C3.73478 12 3.48043 12.1054 3.29289 12.2929C3.10536 12.4804 3 12.7348 3 13V14C3 14.2652 3.10536 14.5196 3.29289 14.7071C3.48043 14.8946 3.73478 15 4 15H20C20.2652 15 20.5196 14.8946 20.7071 14.7071C20.8946 14.5196 21 14.2652 21 14V13.4C21.7976 12.9917 22.484 12.3956 23 11.663V18C23 18.5304 22.7893 19.0391 22.4142 19.4142C22.0391 19.7893 21.5304 20 21 20H3C2.46957 20 1.96086 19.7893 1.58579 19.4142C1.21071 19.0391 1 18.5304 1 18V6C1 5.46957 1.21071 4.96086 1.58579 4.58579C1.96086 4.21071 2.46957 4 3 4H15.337ZM22.044 4.293C22.283 4.495 22.504 4.717 22.706 4.956C22.5406 4.68594 22.3138 4.45877 22.044 4.293Z" fill="#77787D"/>
<path opacity="0.4" fill-rule="evenodd" clip-rule="evenodd" d="M13.6 6C13.1267 6.92493 12.9262 7.96542 13.022 9H1V6H13.6Z" fill="#77787D"/>
<path fill-rule="evenodd" clip-rule="evenodd" d="M18.5 14C17.0413 14 15.6424 13.4205 14.6109 12.3891C13.5795 11.3576 13 9.95869 13 8.5C13 7.04131 13.5795 5.64236 14.6109 4.61091C15.6424 3.57946 17.0413 3 18.5 3C19.9587 3 21.3576 3.57946 22.3891 4.61091C23.4205 5.64236 24 7.04131 24 8.5C24 9.95869 23.4205 11.3576 22.3891 12.3891C21.3576 13.4205 19.9587 14 18.5 14ZM16.316 6.221H15.695L14.179 6.991V7.777L15.381 7.149V10.779H16.324V6.22H16.316V6.221ZM18.123 6.85C18.571 6.85 18.885 7.101 18.885 7.463C18.885 7.856 18.515 8.131 17.981 8.131H17.746V8.799H18.029C18.594 8.799 18.979 9.081 18.979 9.49C18.979 9.883 18.602 10.15 18.068 10.15C17.675 10.15 17.282 10.024 16.874 9.78V10.566C17.314 10.755 17.754 10.857 18.186 10.857C19.215 10.857 19.922 10.331 19.922 9.569C19.922 9.034 19.592 8.602 19.042 8.429C19.514 8.272 19.82 7.856 19.82 7.384C19.82 6.646 19.168 6.143 18.225 6.143C17.7998 6.14762 17.38 6.23845 16.991 6.41V7.18C17.369 6.968 17.754 6.85 18.123 6.85ZM21.517 8.563C22.091 8.563 22.491 8.901 22.491 9.341C22.491 9.804 22.091 10.126 21.517 10.126C21.171 10.126 20.81 10.016 20.441 9.789V10.598C20.826 10.771 21.219 10.858 21.604 10.858C21.808 10.858 21.996 10.826 22.177 10.778C22.5971 10.0982 22.82 9.3151 22.821 8.516L22.806 8.186C22.5138 8.01277 22.1786 7.92543 21.839 7.934C21.6891 7.93346 21.5393 7.94415 21.391 7.966V6.944H22.523C22.4247 6.69245 22.3035 6.45044 22.161 6.221H20.574V8.696C20.8817 8.61331 21.1984 8.56864 21.517 8.563Z" fill="#77787D"/>
</svg>
