<svg width="24" height="16" viewBox="0 0 24 16" fill="none" xmlns="http://www.w3.org/2000/svg">
<g clip-path="url(#clip0_2032_195)">
<path d="M21.9972 15.7499L21.9994 15.7499C22.9545 15.7581 23.7381 14.9773 23.75 14.0042L23.75 2.0063C23.7462 1.53569 23.5589 1.08617 23.2297 0.756802C22.9014 0.428269 22.4589 0.246149 21.9972 0.250071L2.00064 0.250062C1.54109 0.246149 1.09858 0.428269 0.770279 0.756802C0.441145 1.08617 0.253838 1.53569 0.250008 2.00426L0.25 13.9937C0.253838 14.4643 0.441145 14.9138 0.770279 15.2432C1.09858 15.5717 1.54109 15.7538 2.00277 15.7499H21.9972ZM21.9962 16.2499C21.9958 16.2499 21.9955 16.2499 21.9951 16.2499L21.9972 16.2499H21.9962Z" fill="white" stroke="black" stroke-opacity="0.2" stroke-width="0.5"/>
<path d="M12.6123 16.0002H21.9971C22.5239 16.0046 23.0309 15.7995 23.4065 15.4301C23.7821 15.0607 23.9955 14.5573 23.9999 14.0305V11.6719C20.4561 13.7062 16.6127 15.167 12.6123 16.0002Z" fill="#F27712"/>
<path d="M23.1725 9.29643H22.32L21.3601 8.03023H21.269V9.29643H20.5738V6.15161H21.6C22.4028 6.15161 22.8663 6.48264 22.8663 7.0785C22.8663 7.56678 22.5766 7.88126 22.0552 7.98057L23.1725 9.29643ZM22.1463 7.10333C22.1463 6.79712 21.9145 6.63988 21.4842 6.63988H21.269V7.59161H21.4676C21.9145 7.59161 22.1463 7.42609 22.1463 7.10333ZM18.1407 6.15161H20.1104V6.68126H18.8359V7.38471H20.0607V7.92264H18.8359V8.77505H20.1104V9.30471H18.1407V6.15161ZM15.9063 9.37919L14.4001 6.14333H15.1614L16.1132 8.26195L17.0732 6.14333H17.818L16.2952 9.37919H15.9228H15.9063ZM9.60833 9.37092C8.54902 9.37092 7.72143 8.65092 7.72143 7.71574C7.72143 6.8054 8.56557 6.06885 9.62488 6.06885C9.92281 6.06885 10.1711 6.12678 10.4773 6.25919V6.98747C10.2454 6.75965 9.9334 6.63187 9.60833 6.63161C8.94626 6.63161 8.44143 7.11161 8.44143 7.71574C8.44143 8.35299 8.93798 8.80816 9.64143 8.80816C9.95591 8.80816 10.1959 8.70885 10.4773 8.46057V9.18885C10.1628 9.32126 9.89798 9.37092 9.60833 9.37092ZM7.50626 8.33643C7.50626 8.94885 7.00143 9.37092 6.27315 9.37092C5.7435 9.37092 5.36281 9.18885 5.04005 8.77505L5.49522 8.38609C5.65246 8.66747 5.91729 8.80816 6.24833 8.80816C6.56281 8.80816 6.78626 8.61781 6.78626 8.36954C6.78626 8.22885 6.72005 8.12126 6.57936 8.0385C6.4251 7.96365 6.26446 7.90271 6.09936 7.85643C5.44557 7.64954 5.22212 7.42609 5.22212 6.98747C5.22212 6.47436 5.70212 6.0854 6.33109 6.0854C6.72833 6.0854 7.08419 6.20954 7.38212 6.44126L7.01798 6.85505C6.87366 6.69683 6.66938 6.60671 6.45522 6.60678C6.15729 6.60678 5.94212 6.75574 5.94212 6.95436C5.94212 7.11988 6.06626 7.21092 6.48005 7.35161C7.27453 7.59988 7.50626 7.83161 7.50626 8.34471V8.33643ZM4.08833 6.15161H4.7835V9.30471H4.08833V6.15161ZM1.85384 9.30471H0.827637V6.15161H1.85384C2.97936 6.15161 3.75729 6.79712 3.75729 7.72402C3.75729 8.19574 3.52557 8.64264 3.12005 8.94057C2.77246 9.18885 2.3835 9.30471 1.84557 9.30471H1.85384ZM2.66488 6.93781C2.43315 6.75574 2.16833 6.68954 1.71315 6.68954H1.52281V8.77505H1.71315C2.16005 8.77505 2.44143 8.6923 2.66488 8.52678C2.90488 8.32816 3.04557 8.03023 3.04557 7.72402C3.04557 7.41781 2.90488 7.12816 2.66488 6.93781Z" fill="black"/>
<path d="M12.4137 6.06885C11.5034 6.06885 10.7585 6.79712 10.7585 7.69919C10.7585 8.65919 11.4703 9.37919 12.4137 9.37919C13.3406 9.37919 14.0689 8.65092 14.0689 7.72402C14.0689 6.79712 13.3489 6.06885 12.4137 6.06885Z" fill="#F27712"/>
</g>
<defs>
<clipPath id="clip0_2032_195">
<rect width="24" height="16" fill="white"/>
</clipPath>
</defs>
</svg>
