<svg width="30" height="16" viewBox="0 0 30 16" fill="none" xmlns="http://www.w3.org/2000/svg">
<path d="M22.021 0H7.98C3.59 0 0 3.6 0 8C0 12.4 3.59 16 7.979 16H22.02C26.41 16 30 12.4 30 8C30 3.6 26.41 0 22.021 0Z" fill="white"/>
<path d="M22.021 0.648C23.007 0.648 23.964 0.844 24.866 1.228C26.6278 1.97906 28.0294 3.38432 28.776 5.148C29.158 6.052 29.354 7.012 29.354 8C29.354 8.988 29.158 9.948 28.775 10.852C28.0265 12.6144 26.6255 14.019 24.865 14.772C23.965 15.156 23.007 15.352 22.021 15.352H7.98C7.00218 15.3533 6.03428 15.156 5.135 14.772C3.37323 14.0209 1.97155 12.6157 1.225 10.852C0.842201 9.94997 0.645601 8.97989 0.647 8C0.647 7.012 0.843 6.052 1.226 5.148C1.97449 3.38562 3.37554 1.98099 5.136 1.228C6.03497 0.844167 7.00251 0.646849 7.98 0.648H22.02H22.021ZM22.021 0H7.98C3.59 0 0 3.6 0 8C0 12.4 3.59 16 7.979 16H22.02C26.41 16 30 12.4 30 8C30 3.6 26.41 0 22.021 0Z" fill="#3C4043"/>
<path d="M14.306 8.56821V10.9882H13.54V5.01221H15.57C16.085 5.01221 16.524 5.18421 16.883 5.52821C17.25 5.87221 17.433 6.29221 17.433 6.78821C17.433 7.29621 17.25 7.71621 16.883 8.05621C16.528 8.39621 16.089 8.56421 15.57 8.56421H14.306V8.56821ZM14.306 5.74821V7.83221H15.586C15.89 7.83221 16.145 7.72821 16.344 7.52421C16.548 7.32021 16.651 7.07221 16.651 6.79221C16.6516 6.65703 16.6246 6.52315 16.5719 6.39869C16.5191 6.27424 16.4416 6.1618 16.344 6.06821C16.2476 5.96447 16.13 5.88259 15.9993 5.82808C15.8685 5.77358 15.7276 5.74771 15.586 5.75221H14.306V5.74821ZM19.436 6.76421C20.003 6.76421 20.45 6.91621 20.776 7.22021C21.104 7.52421 21.267 7.94021 21.267 8.46821V10.9882H20.537V10.4202H20.505C20.19 10.8882 19.767 11.1202 19.241 11.1202C18.79 11.1202 18.415 10.9882 18.111 10.7202C17.9659 10.5977 17.8498 10.4444 17.7712 10.2714C17.6927 10.0984 17.6537 9.91014 17.657 9.72021C17.657 9.29621 17.817 8.96021 18.136 8.71221C18.455 8.46021 18.882 8.33621 19.412 8.33621C19.867 8.33621 20.242 8.42021 20.533 8.58821V8.41221C20.5343 8.28259 20.5067 8.15431 20.4522 8.03669C20.3977 7.91907 20.3177 7.81506 20.218 7.73221C20.0152 7.54815 19.7499 7.44807 19.476 7.45221C19.049 7.45221 18.71 7.63221 18.463 7.99621L17.789 7.57221C18.159 7.03221 18.71 6.76421 19.436 6.76421ZM18.446 9.73221C18.446 9.93221 18.531 10.1002 18.702 10.2322C18.87 10.3642 19.069 10.4322 19.297 10.4322C19.62 10.4322 19.907 10.3122 20.158 10.0722C20.41 9.83221 20.538 9.55221 20.538 9.22821C20.298 9.04021 19.967 8.94421 19.54 8.94421C19.229 8.94421 18.97 9.02021 18.762 9.16821C18.551 9.32421 18.447 9.51221 18.447 9.73221H18.446ZM25.432 6.89621L22.879 12.7842H22.089L23.039 10.7242L21.355 6.89621H22.189L23.4 9.83221H23.416L24.597 6.89621H25.431H25.432Z" fill="#3C4043"/>
<path d="M11.2599 8.07986C11.2599 7.82986 11.2369 7.58986 11.1949 7.35986H7.98486V8.67986H9.83386C9.75886 9.11986 9.51686 9.49386 9.14786 9.74286V10.5999H10.2479C10.8909 10.0029 11.2589 9.12186 11.2589 8.07986H11.2599Z" fill="#4285F4"/>
<path d="M9.14891 9.74323C8.84291 9.95023 8.44791 10.0722 7.98591 10.0722C7.09491 10.0722 6.33791 9.46923 6.06791 8.65723H4.93091V9.54023C5.21465 10.1073 5.65059 10.5842 6.18995 10.9177C6.7293 11.2511 7.35081 11.4279 7.98491 11.4282C8.90891 11.4282 9.68491 11.1232 10.2479 10.5992L9.14791 9.74323H9.14891Z" fill="#34A853"/>
<path d="M5.9599 8.00189C5.9599 7.77389 5.9979 7.55389 6.0669 7.34589V6.46289H4.9299C4.6902 6.94044 4.56587 7.46756 4.5669 8.00189C4.5669 8.55589 4.6979 9.07789 4.9299 9.54089L6.0659 8.65789C5.99515 8.44641 5.95902 8.22489 5.9589 8.00189H5.9599Z" fill="#FABB05"/>
<path d="M7.98613 5.9319C8.49013 5.9319 8.94113 6.1059 9.29813 6.4459L10.2731 5.4689C9.65521 4.8863 8.83534 4.56616 7.98613 4.5759C7.35213 4.57614 6.7307 4.75277 6.19135 5.08602C5.65201 5.41927 5.21601 5.89601 4.93213 6.4629L6.06713 7.3459C6.33813 6.5339 7.09513 5.9319 7.98713 5.9319H7.98613Z" fill="#E94235"/>
</svg>
