<svg width="413" height="1864" viewBox="0 0 413 1864" fill="none" xmlns="http://www.w3.org/2000/svg">
<g clip-path="url(#clip0_5_1139)">
<path d="M413.949 34.2508L413.949 121.737L341.292 77.9938L413.949 34.2508Z" fill="#18D1A1"/>
<path d="M413.949 122.243L413.949 209.728L341.292 165.985L413.949 122.243Z" fill="#0E8B6E"/>
<path d="M413.949 210.234L413.949 297.72L341.292 253.977L413.949 210.234Z" fill="#18D1A1"/>
<path d="M413.949 298.226L413.949 385.712L341.292 341.969L413.949 298.226Z" fill="#0E8B6E"/>
<path d="M413.949 386.218L413.949 473.703L341.292 429.961L413.949 386.218Z" fill="#0E8B6E"/>
<path d="M413.949 474.209L413.949 561.695L341.292 517.952L413.949 474.209Z" fill="#18D1A1"/>
<path d="M413.949 562.201L413.949 649.687L341.292 605.944L413.949 562.201Z" fill="#0E8B6E"/>
<path d="M413.949 650.193L413.949 737.679L341.292 693.936L413.949 650.193Z" fill="#11977D"/>
<path d="M413.949 738.184L413.949 825.67L341.292 781.927L413.949 738.184Z" fill="#18D1A1"/>
<path d="M413.949 826.176L413.949 913.662L341.292 869.919L413.949 826.176Z" fill="#18D1A1"/>
<path d="M413.949 914.168L413.949 1001.65L341.292 957.911L413.949 914.168Z" fill="#11977D"/>
<path d="M413.949 1002.16L413.949 1089.65L341.292 1045.9L413.949 1002.16Z" fill="#11977D"/>
<path d="M341.948 -9.74501L341.948 77.7408L414.605 33.9979L341.948 -9.74501Z" fill="#0E8B6E"/>
<path d="M341.948 78.2467L341.948 165.733L414.605 121.99L341.948 78.2467Z" fill="#0E8B6E"/>
<path d="M341.948 166.238L341.948 253.724L414.605 209.981L341.948 166.238Z" fill="#11977D"/>
<path d="M341.948 254.23L341.948 341.716L414.605 297.973L341.948 254.23Z" fill="#11977D"/>
<path d="M341.948 342.222L341.948 429.708L414.605 385.965L341.948 342.222Z" fill="#11977D"/>
<path d="M341.948 430.213L341.948 517.699L414.605 473.956L341.948 430.213Z" fill="#0E8B6E"/>
<path d="M341.948 518.205L341.948 605.691L414.605 561.948L341.948 518.205Z" fill="#18D1A1"/>
<path d="M341.948 606.197L341.948 693.683L414.605 649.94L341.948 606.197Z" fill="#18D1A1"/>
<path d="M341.948 694.189L341.948 781.674L414.605 737.932L341.948 694.189Z" fill="#0E8B6E"/>
<path d="M341.948 782.18L341.948 869.666L414.605 825.923L341.948 782.18Z" fill="#0E8B6E"/>
<path d="M341.948 870.172L341.948 957.658L414.605 913.915L341.948 870.172Z" fill="#11977D"/>
<path d="M341.948 958.164L341.948 1045.65L414.605 1001.91L341.948 958.164Z" fill="#18D1A1"/>
<path d="M341.948 1046.16L341.948 1133.64L414.605 1089.9L341.948 1046.16Z" fill="#0E8B6E"/>
<path d="M341.949 34.2508L341.949 121.737L269.292 77.9938L341.949 34.2508Z" fill="#11977D"/>
<path d="M341.949 122.243L341.949 209.728L269.292 165.985L341.949 122.243Z" fill="#18D1A1"/>
<path d="M341.949 210.234L341.949 297.72L269.292 253.977L341.949 210.234Z" fill="#0E8B6E"/>
<path d="M341.949 298.226L341.949 385.712L269.292 341.969L341.949 298.226Z" fill="#18D1A1"/>
<path d="M341.949 386.218L341.949 473.703L269.292 429.961L341.949 386.218Z" fill="#0E8B6E"/>
<path d="M341.949 474.209L341.949 561.695L269.292 517.952L341.949 474.209Z" fill="#18D1A1"/>
<path d="M341.949 562.201L341.949 649.687L269.292 605.944L341.949 562.201Z" fill="#0E8B6E"/>
<path d="M341.949 650.193L341.949 737.679L269.292 693.936L341.949 650.193Z" fill="#11977D"/>
<path d="M341.949 738.184L341.949 825.67L269.292 781.927L341.949 738.184Z" fill="#0E8B6E"/>
<path d="M341.949 826.176L341.949 913.662L269.292 869.919L341.949 826.176Z" fill="#18D1A1"/>
<path d="M341.949 914.168L341.949 1001.65L269.292 957.911L341.949 914.168Z" fill="#0E8B6E"/>
<path d="M341.949 1002.16L341.949 1089.65L269.292 1045.9L341.949 1002.16Z" fill="#0E8B6E"/>
<path d="M269.948 -9.74501L269.948 77.7408L342.605 33.9979L269.948 -9.74501Z" fill="#0E8B6E"/>
<path d="M269.948 78.2467L269.948 165.733L342.605 121.99L269.948 78.2467Z" fill="#11977D"/>
<path d="M269.948 166.238L269.948 253.724L342.605 209.981L269.948 166.238Z" fill="#11977D"/>
<path d="M269.948 254.23L269.948 341.716L342.605 297.973L269.948 254.23Z" fill="#11977D"/>
<path d="M269.948 342.222L269.948 429.708L342.605 385.965L269.948 342.222Z" fill="#18D1A1"/>
<path d="M269.948 430.213L269.948 517.699L342.605 473.956L269.948 430.213Z" fill="#11977D"/>
<path d="M269.948 518.205L269.948 605.691L342.605 561.948L269.948 518.205Z" fill="#11977D"/>
<path d="M269.948 606.197L269.948 693.683L342.605 649.94L269.948 606.197Z" fill="#0E8B6E"/>
<path d="M269.948 694.189L269.948 781.674L342.605 737.932L269.948 694.189Z" fill="#0E8B6E"/>
<path d="M269.948 782.18L269.948 869.666L342.605 825.923L269.948 782.18Z" fill="#11977D"/>
<path d="M269.948 870.172L269.948 957.658L342.605 913.915L269.948 870.172Z" fill="#18D1A1"/>
<path d="M269.948 958.164L269.948 1045.65L342.605 1001.91L269.948 958.164Z" fill="#11977D"/>
<path d="M269.948 1046.16L269.948 1133.64L342.605 1089.9L269.948 1046.16Z" fill="#11977D"/>
<path d="M413.949 -53.745L413.949 33.7408L341.292 -10.0021L413.949 -53.745Z" fill="#11977D"/>
<path d="M269.949 34.2508L269.949 121.737L197.292 77.9938L269.949 34.2508Z" fill="#18D1A1"/>
<path d="M269.949 210.234L269.949 297.72L197.292 253.977L269.949 210.234Z" fill="#18D1A1"/>
<path d="M269.949 474.209L269.949 561.695L197.292 517.952L269.949 474.209Z" fill="#18D1A1"/>
<path d="M269.949 562.201L269.949 649.687L197.292 605.944L269.949 562.201Z" fill="#0E8B6E"/>
<path d="M269.949 650.193L269.949 737.679L197.292 693.936L269.949 650.193Z" fill="#11977D"/>
<path d="M269.949 738.184L269.949 825.67L197.292 781.927L269.949 738.184Z" fill="#18D1A1"/>
<path d="M269.949 826.176L269.949 913.662L197.292 869.919L269.949 826.176Z" fill="#18D1A1"/>
<path d="M269.949 914.168L269.949 1001.65L197.292 957.911L269.949 914.168Z" fill="#11977D"/>
<path d="M269.949 1002.16L269.949 1089.65L197.292 1045.9L269.949 1002.16Z" fill="#18D1A1"/>
<path d="M197.949 -9.74501L197.949 77.7408L270.605 33.9979L197.949 -9.74501Z" fill="#0E8B6E"/>
<path d="M208.591 376L163.467 450.951L248.275 450.951L208.591 376Z" fill="#18D1A1"/>
<path d="M122.403 276.599L136.304 362.974L201.087 308.242L122.403 276.599Z" fill="#11977D"/>
<path d="M217.512 124.482L140.958 166.829L214.404 209.233L217.512 124.482Z" fill="#0E8B6E"/>
<path d="M80.4026 55.5995L94.3035 141.974L159.087 87.242L80.4026 55.5995Z" fill="#18D1A1"/>
<path d="M197.949 518.205L197.949 605.691L270.605 561.948L197.949 518.205Z" fill="#18D1A1"/>
<path d="M197.949 606.197L197.949 693.683L270.605 649.94L197.949 606.197Z" fill="#18D1A1"/>
<path d="M197.949 694.189L197.949 781.674L270.605 737.932L197.949 694.189Z" fill="#0E8B6E"/>
<path d="M197.949 782.18L197.949 869.666L270.605 825.923L197.949 782.18Z" fill="#0E8B6E"/>
<path d="M197.949 870.172L197.949 957.658L270.605 913.915L197.949 870.172Z" fill="#11977D"/>
<path d="M197.949 958.164L197.949 1045.65L270.605 1001.91L197.949 958.164Z" fill="#0E8B6E"/>
<path d="M197.949 1046.16L197.949 1133.64L270.605 1089.9L197.949 1046.16Z" fill="#0E8B6E"/>
<path d="M269.949 -53.745L269.949 33.7408L197.292 -10.0021L269.949 -53.745Z" fill="#11977D"/>
<path d="M341.949 -53.745L341.949 33.7408L269.292 -10.0021L341.949 -53.745Z" fill="#18D1A1"/>
<path d="M413.949 1178.25L413.949 1265.74L341.292 1221.99L413.949 1178.25Z" fill="#18D1A1"/>
<path d="M413.949 1266.24L413.949 1353.73L341.292 1309.99L413.949 1266.24Z" fill="#0E8B6E"/>
<path d="M413.949 1354.23L413.949 1441.72L341.292 1397.98L413.949 1354.23Z" fill="#18D1A1"/>
<path d="M413.949 1442.23L413.949 1529.71L341.292 1485.97L413.949 1442.23Z" fill="#0E8B6E"/>
<path d="M413.949 1530.22L413.949 1617.7L341.292 1573.96L413.949 1530.22Z" fill="#0E8B6E"/>
<path d="M413.949 1618.21L413.949 1705.7L341.292 1661.95L413.949 1618.21Z" fill="#18D1A1"/>
<path d="M413.949 1706.2L413.949 1793.69L341.292 1749.94L413.949 1706.2Z" fill="#0E8B6E"/>
<path d="M413.949 1794.19L413.949 1881.68L341.292 1837.94L413.949 1794.19Z" fill="#11977D"/>
<path d="M413.949 1882.18L413.949 1969.67L341.292 1925.93L413.949 1882.18Z" fill="#18D1A1"/>
<path d="M341.949 1134.25L341.949 1221.74L414.605 1178L341.949 1134.25Z" fill="#0E8B6E"/>
<path d="M341.949 1222.25L341.949 1309.73L414.605 1265.99L341.949 1222.25Z" fill="#0E8B6E"/>
<path d="M341.949 1310.24L341.949 1397.72L414.605 1353.98L341.949 1310.24Z" fill="#11977D"/>
<path d="M341.949 1398.23L341.949 1485.72L414.605 1441.97L341.949 1398.23Z" fill="#11977D"/>
<path d="M341.949 1486.22L341.949 1573.71L414.605 1529.96L341.949 1486.22Z" fill="#11977D"/>
<path d="M341.949 1574.21L341.949 1661.7L414.605 1617.96L341.949 1574.21Z" fill="#0E8B6E"/>
<path d="M341.949 1838.19L341.949 1925.67L414.605 1881.93L341.949 1838.19Z" fill="#0E8B6E"/>
<path d="M341.949 1178.25L341.949 1265.74L269.292 1221.99L341.949 1178.25Z" fill="#11977D"/>
<path d="M341.949 1266.24L341.949 1353.73L269.292 1309.99L341.949 1266.24Z" fill="#18D1A1"/>
<path d="M341.949 1354.23L341.949 1441.72L269.292 1397.98L341.949 1354.23Z" fill="#0E8B6E"/>
<path d="M341.949 1442.23L341.949 1529.71L269.292 1485.97L341.949 1442.23Z" fill="#18D1A1"/>
<path d="M341.949 1530.22L341.949 1617.7L269.292 1573.96L341.949 1530.22Z" fill="#0E8B6E"/>
<path d="M341.949 1837.25L341.949 1924.74L269.292 1881L341.949 1837.25Z" fill="#18D1A1"/>
<path d="M341.949 1882.18L341.949 1969.67L269.292 1925.93L341.949 1882.18Z" fill="#0E8B6E"/>
<path d="M269.949 1134.25L269.949 1221.74L342.605 1178L269.949 1134.25Z" fill="#0E8B6E"/>
<path d="M269.949 1222.25L269.949 1309.73L342.605 1265.99L269.949 1222.25Z" fill="#11977D"/>
<path d="M269.949 1310.24L269.949 1397.72L342.605 1353.98L269.949 1310.24Z" fill="#11977D"/>
<path d="M269.949 1398.23L269.949 1485.72L342.605 1441.97L269.949 1398.23Z" fill="#11977D"/>
<path d="M269.949 1486.22L269.949 1573.71L342.605 1529.96L269.949 1486.22Z" fill="#18D1A1"/>
<path d="M269.949 1574.21L269.949 1661.7L342.605 1617.96L269.949 1574.21Z" fill="#11977D"/>
<path d="M269.949 1881.25L269.949 1968.74L342.605 1924.99L269.949 1881.25Z" fill="#11977D"/>
<path d="M413.949 1090.25L413.949 1177.74L341.292 1134L413.949 1090.25Z" fill="#11977D"/>
<path d="M341.949 1090.25L341.949 1177.74L269.292 1134L341.949 1090.25Z" fill="#18D1A1"/>
<path d="M269.949 1178.25L269.949 1265.74L197.292 1221.99L269.949 1178.25Z" fill="#18D1A1"/>
<path d="M269.949 1266.24L269.949 1353.73L197.292 1309.99L269.949 1266.24Z" fill="#0E8B6E"/>
<path d="M269.949 1354.23L269.949 1441.72L197.292 1397.98L269.949 1354.23Z" fill="#18D1A1"/>
<path d="M269.949 1442.23L269.949 1529.71L197.292 1485.97L269.949 1442.23Z" fill="#0E8B6E"/>
<path d="M269.949 1530.22L269.949 1617.7L197.292 1573.96L269.949 1530.22Z" fill="#0E8B6E"/>
<path d="M269.949 1618.21L269.949 1705.7L197.292 1661.95L269.949 1618.21Z" fill="#11977D"/>
<path d="M269.949 1885.18L269.949 1972.67L197.292 1928.93L269.949 1885.18Z" fill="#18D1A1"/>
<path d="M197.948 1134.25L197.948 1221.74L270.605 1178L197.948 1134.25Z" fill="#0E8B6E"/>
<path d="M197.948 1222.25L197.948 1309.73L270.605 1265.99L197.948 1222.25Z" fill="#0E8B6E"/>
<path d="M197.948 1310.24L197.948 1397.72L270.605 1353.98L197.948 1310.24Z" fill="#11977D"/>
<path d="M197.948 1398.23L197.948 1485.72L270.605 1441.97L197.948 1398.23Z" fill="#18D1A1"/>
<path d="M197.948 1486.22L197.948 1573.71L270.605 1529.96L197.948 1486.22Z" fill="#11977D"/>
<path d="M197.948 1574.21L197.948 1661.7L270.605 1617.96L197.948 1574.21Z" fill="#0E8B6E"/>
<path d="M268.289 1659.95L344.401 1703.08L342.169 1618.3L268.289 1659.95Z" fill="#0E8B6E"/>
<path d="M197.949 1181.25L197.949 1268.74L125.292 1224.99L197.949 1181.25Z" fill="#11977D"/>
<path d="M197.949 1269.24L197.949 1356.73L125.292 1312.99L197.949 1269.24Z" fill="#18D1A1"/>
<path d="M197.949 1357.23L197.949 1444.72L125.292 1400.98L197.949 1357.23Z" fill="#0E8B6E"/>
<path d="M197.949 1445.23L197.949 1532.71L125.292 1488.97L197.949 1445.23Z" fill="#18D1A1"/>
<path d="M197.949 1533.22L197.949 1620.7L125.292 1576.96L197.949 1533.22Z" fill="#0E8B6E"/>
<path d="M197.949 1885.18L197.949 1972.67L125.292 1928.93L197.949 1885.18Z" fill="#0E8B6E"/>
<path d="M125.948 1137.25L125.948 1224.74L198.605 1181L125.948 1137.25Z" fill="#0E8B6E"/>
<path d="M125.948 1225.25L125.948 1312.73L198.605 1268.99L125.948 1225.25Z" fill="#11977D"/>
<path d="M125.948 1313.24L125.948 1400.72L198.605 1356.98L125.948 1313.24Z" fill="#11977D"/>
<path d="M125.948 1401.23L125.948 1488.72L198.605 1444.97L125.948 1401.23Z" fill="#11977D"/>
<path d="M125.948 1489.22L125.948 1576.71L198.605 1532.96L125.948 1489.22Z" fill="#18D1A1"/>
<path d="M125.948 1577.21L125.948 1664.7L198.605 1620.96L125.948 1577.21Z" fill="#18D1A1"/>
<path d="M41.9484 1636.25L41.9484 1723.74L114.605 1680L41.9484 1636.25Z" fill="#0E8B6E"/>
<path d="M130.452 1704.75L184.397 1773.62L214.624 1694.38L130.452 1704.75Z" fill="#11977D"/>
<path d="M281.072 1683.29L277.024 1770.68L351.627 1730.34L281.072 1683.29Z" fill="#18D1A1"/>
<path d="M269.949 1090.25L269.949 1177.74L197.292 1134L269.949 1090.25Z" fill="#11977D"/>
<path d="M197.949 1093.25L197.949 1180.74L125.292 1137L197.949 1093.25Z" fill="#18D1A1"/>
<path d="M149.386 480.255L149.386 567.741L76.7295 523.998L149.386 480.255Z" fill="#0E8B6E"/>
<path d="M197.949 565.201L197.949 652.687L125.292 608.944L197.949 565.201Z" fill="#0E8B6E"/>
<path d="M197.949 653.193L197.949 740.679L125.292 696.936L197.949 653.193Z" fill="#11977D"/>
<path d="M197.949 741.184L197.949 828.67L125.292 784.927L197.949 741.184Z" fill="#18D1A1"/>
<path d="M197.949 829.176L197.949 916.662L125.292 872.919L197.949 829.176Z" fill="#18D1A1"/>
<path d="M197.949 917.168L197.949 1004.65L125.292 960.911L197.949 917.168Z" fill="#11977D"/>
<path d="M197.949 1005.16L197.949 1092.65L125.292 1048.9L197.949 1005.16Z" fill="#11977D"/>
<path d="M125.948 609.197L125.948 696.683L198.605 652.94L125.948 609.197Z" fill="#18D1A1"/>
<path d="M125.948 697.189L125.948 784.674L198.605 740.932L125.948 697.189Z" fill="#0E8B6E"/>
<path d="M125.948 785.18L125.948 872.666L198.605 828.923L125.948 785.18Z" fill="#0E8B6E"/>
<path d="M125.948 873.172L125.948 960.658L198.605 916.915L125.948 873.172Z" fill="#11977D"/>
<path d="M125.948 961.164L125.948 1048.65L198.605 1004.91L125.948 961.164Z" fill="#18D1A1"/>
<path d="M125.948 1049.16L125.948 1136.64L198.605 1092.9L125.948 1049.16Z" fill="#0E8B6E"/>
</g>
<defs>
<clipPath id="clip0_5_1139">
<rect width="413" height="1864" fill="white"/>
</clipPath>
</defs>
</svg>
